<svg xmlns="http://www.w3.org/2000/svg" xmlns:xlink="http://www.w3.org/1999/xlink" xmlns:ev="http://www.w3.org/2001/xml-events"
		width="1.06713in" height="0.544211in" viewBox="0 0 76.8337 39.1832" xml:space="preserve" color-interpolation-filters="sRGB"
		class="st5">
	<title>KITS Data Flow</title>

	<style type="text/css">
	<![CDATA[
		.st1 {visibility:visible}
		.st2 {fill:#5b9bd5;fill-opacity:0.22;filter:url(#filter_2);stroke:#5b9bd5;stroke-opacity:0.22}
		.st3 {fill:#bfbfbf;stroke:#7f7f7f;stroke-width:0.24}
		.st4 {fill:#feffff;font-family:Calibri;font-size:0.833336eml}
		.st5 {fill:none;fill-rule:evenodd;font-size:12px;overflow:visible;stroke-linecap:square;stroke-miterlimit:3}
	]]>
	</style>

	<defs id="Filters">
		<filter id="filter_2">
			<feGaussianBlur stdDeviation="2"/>
		</filter>
	</defs>
	<g>
		<title>Page-1</title>
		<g id="shape5-1" transform="translate(0.239876,-2.0928)">
			<title>Rounded Rectangle.1039</title>
			<desc>Physical App.</desc>
			<g id="shadow5-2" transform="matrix(1,0,0,1,0.3456,1.9728)" class="st1">
				<path d="M7.61 39.18 L68.52 39.18 A7.61271 7.61271 -180 0 0 76.13 31.57 L76.13 9.95 A7.61271 7.61271 -180 0 0 68.52
							 2.33 L7.61 2.33 A7.61271 7.61271 -180 0 0 -0 9.95 L0 31.57 A7.61271 7.61271 -180 0 0 7.61 39.18 Z"
						class="st2"/>
			</g>
			<path d="M7.61 39.18 L68.52 39.18 A7.61271 7.61271 -180 0 0 76.13 31.57 L76.13 9.95 A7.61271 7.61271 -180 0 0 68.52 2.33
						 L7.61 2.33 A7.61271 7.61271 -180 0 0 -0 9.95 L0 31.57 A7.61271 7.61271 -180 0 0 7.61 39.18 Z" class="st3"/>
			<text x="11.29" y="23.76" class="st4">Physical App.</text>		</g>
	</g>
</svg>
